<?xml version="1.0" encoding="utf-8"?>
<!-- Generator: Adobe Illustrator 21.0.0, SVG Export Plug-In . SVG Version: 6.00 Build 0)  -->
<svg version="1.1" id="Layer_1" xmlns="http://www.w3.org/2000/svg" xmlns:xlink="http://www.w3.org/1999/xlink" x="0px" y="0px"
	 viewBox="0 0 379.6 94" style="enable-background:new 0 0 379.6 94;" xml:space="preserve">
<style type="text/css">
	.st0{fill:#FFFFFF;}
	.st1{fill:#FF0000;}
</style>
<g>
	<polygon class="st0" points="171,50.9 176.7,50.9 176.7,13.1 194.9,13.1 194.9,50.9 200.7,50.9 200.7,7.4 171,7.4 	"/>
	<path class="st0" d="M228.4,6.6c-6.1,0-11.4,2.2-15.8,6.5c-4.4,4.4-6.6,9.7-6.6,15.8c0,6.2,2.2,11.7,6.5,16.1
		c4.3,4.5,9.7,6.7,15.9,6.7c6.3,0,11.7-2.2,15.9-6.7c4.2-4.4,6.4-9.9,6.4-16.2c0-6.1-2.1-11.5-6.4-15.8
		C239.8,8.8,234.6,6.6,228.4,6.6z M240,41c-3,3.4-6.9,5.1-11.8,5.1c-4.5,0-8.5-1.7-11.6-5.1s-4.7-7.4-4.7-12c0-4.4,1.6-8.3,4.8-11.6
		s7-5,11.5-5c4.4,0,8.2,1.6,11.4,4.9c3.2,3.3,4.8,7.1,4.8,11.6C244.5,33.6,243,37.7,240,41z"/>
	<path class="st0" d="M277.9,10.5c-2.6-2-6-3-10.3-3h-11.8V51h5.6V33.2h5.4c4.4,0,8-1.1,10.7-3.2c2.9-2.3,4.4-5.6,4.4-10
		C282,15.9,280.6,12.7,277.9,10.5z M266.5,28h-4.9V12.7h5.2c6.3,0,9.6,2.6,9.6,7.9C276.3,25.5,272.9,28,266.5,28z"/>
	<polygon class="st0" points="306.8,7.4 283.5,7.4 283.5,12.8 292.3,12.8 292.3,50.9 298,50.9 298,12.8 306.8,12.8 	"/>
	<path class="st0" d="M320,7.4L303,51h6.2l4.8-12.8h17.8l4.8,12.8h6.2L326,7.4C326,7.4,320,7.4,320,7.4z M316,32.8l6.9-18.1
		l6.8,18.1H316z"/>
	<polygon class="st0" points="363.8,7.4 358.1,7.4 342.4,50.9 348.6,50.9 361.1,14.6 373.6,50.9 379.6,50.9 	"/>
	<path class="st1" d="M27.4,36L15.8,0H0v52h11.1V22.2c0-1.1-0.1-2.7-0.2-4.9c-0.1-2.2-0.2-3.8-0.2-4.9l0.1-0.1L23.2,52h8l12.6-39.5
		l0.1-0.1c0,1.1-0.1,2.8-0.2,4.9c-0.1,2.2-0.2,3.8-0.2,4.9V52h11.1V0H38.8L27.4,36z"/>
	<polygon class="st1" points="66.9,52 95.3,52 95.3,41.4 78.7,41.4 78.7,30.8 94.9,30.8 94.9,20.3 78.7,20.3 78.7,10.5 95.3,10.5 
		95.3,0 66.9,0 	"/>
	<path class="st1" d="M144.1,7c-4.5-4.7-10.8-7-18.7-7h-18.8v52h17c8.6,0,15.2-2.2,20-6.5c4.9-4.5,7.3-11,7.3-19.5
		C151,18,148.6,11.8,144.1,7z M124.7,41.6h-6.3V10.5h6.4c4.7,0,8.4,1.4,10.9,4.3c2.4,2.7,3.5,6.5,3.5,11.4
		C139.2,36.4,134.4,41.6,124.7,41.6z"/>
	<path class="st0" d="M18.4,74.7h-3.7v-10c0-0.4,0-0.9,0.1-1.7c0-0.7,0.1-1.3,0.1-1.7l0,0l-4.2,13.4H8L3.6,61.3l0,0
		c0,0.4,0,0.9,0.1,1.7c0,0.7,0.1,1.3,0.1,1.7v10.1H0V57.2h5.3l3.9,12.2l3.9-12.2h5.3v17.5H18.4z"/>
	<path class="st0" d="M50.3,74.7h-9.6V57.2h9.6v3.5h-5.6V64h5.5v3.5h-5.5v3.6h5.6V74.7z"/>
	<path class="st0" d="M87.3,65.9c0,2.8-0.8,5-2.5,6.5c-1.6,1.5-3.8,2.2-6.7,2.2h-5.7V57.2h6.3c2.7,0,4.8,0.8,6.3,2.4
		C86.5,61.1,87.3,63.2,87.3,65.9z M83.2,65.9c0-1.6-0.4-2.9-1.2-3.8c-0.8-1-2.1-1.5-3.6-1.5h-2.2v10.6h2.1
		C81.6,71.2,83.2,69.4,83.2,65.9z"/>
	<path class="st0" d="M112.9,74.7h-4V57.2h4V74.7z"/>
	<path class="st0" d="M151,74.7h-4.4l-1.1-3.2h-6.3l-1.2,3.2h-4.3l7-17.6h3.2L151,74.7z M144.3,68.2l-2-6.3l-2,6.3H144.3z"/>
	<polygon class="st0" points="0.6,79.7 0,79.7 0,94 0.6,94 1.4,94 2.1,94 2.1,79.7 1.4,79.7 	"/>
	<polygon class="st0" points="7.4,86.6 8.1,86.6 8.9,86.6 9.6,86.6 9.6,79.7 7.4,79.7 	"/>
	<polygon class="st0" points="14.9,86.6 15.5,86.6 16.3,86.6 16.9,86.6 16.9,79.7 14.9,79.7 	"/>
	<polygon class="st0" points="22.3,86.6 22.9,86.6 23.8,86.6 24.4,86.6 24.4,79.7 22.3,79.7 	"/>
	<polygon class="st0" points="29.8,86.6 30.4,86.6 31.2,86.6 31.8,86.6 31.8,79.7 29.8,79.7 	"/>
	<polygon class="st0" points="37.8,79.7 37.2,79.7 37.2,94 37.8,94 38.6,94 39.3,94 39.3,79.7 38.6,79.7 	"/>
	<polygon class="st0" points="44.7,86.6 45.3,86.6 46.1,86.6 46.7,86.6 46.7,79.7 44.7,79.7 	"/>
	<polygon class="st0" points="52,86.6 52.7,86.6 53.5,86.6 54.1,86.6 54.1,79.7 52,79.7 	"/>
	<polygon class="st0" points="59.5,86.6 60.2,86.6 61,86.6 61.6,86.6 61.6,79.7 59.5,79.7 	"/>
	<polygon class="st0" points="66.9,86.6 67.6,86.6 68.4,86.6 69,86.6 69,79.7 66.9,79.7 	"/>
	<polygon class="st0" points="75.1,79.7 74.4,79.7 74.4,94 75.1,94 75.9,94 76.5,94 76.5,79.7 75.9,79.7 	"/>
	<polygon class="st0" points="81.8,86.6 82.5,86.6 83.3,86.6 83.9,86.6 83.9,79.7 81.8,79.7 	"/>
	<polygon class="st0" points="89.3,86.6 89.9,86.6 90.8,86.6 91.4,86.6 91.4,79.7 89.3,79.7 	"/>
	<polygon class="st0" points="96.7,86.6 97.3,86.6 98.2,86.6 98.8,86.6 98.8,79.7 96.7,79.7 	"/>
	<polygon class="st0" points="104.2,86.6 104.8,86.6 105.7,86.6 106.3,86.6 106.3,79.7 104.2,79.7 	"/>
	<polygon class="st0" points="112.2,79.7 111.6,79.7 111.6,94 112.2,94 113.1,94 113.7,94 113.7,79.7 113.1,79.7 	"/>
	<polygon class="st0" points="119.1,86.6 119.7,86.6 120.6,86.6 121.2,86.6 121.2,79.7 119.1,79.7 	"/>
	<polygon class="st0" points="126.5,86.6 127.1,86.6 128,86.6 128.6,86.6 128.6,79.7 126.5,79.7 	"/>
	<polygon class="st0" points="134,86.6 134.6,86.6 135.5,86.6 136.1,86.6 136.1,79.7 134,79.7 	"/>
	<polygon class="st0" points="141.4,86.6 142,86.6 142.9,86.6 143.5,86.6 143.5,79.7 141.4,79.7 	"/>
	<polygon class="st0" points="149.5,79.7 148.9,79.7 148.9,94 149.5,94 150.4,94 151,94 151,79.7 150.4,79.7 	"/>
</g>
</svg>
